<svg width="36" height="36" viewBox="0 0 38 36" fill="none" xmlns="http://www.w3.org/2000/svg" class="icon-svg"><path d="M2.70526 31.8086H1.95067L1.91524 31.8451L0.753122 35.6597L0.751038 35.7754H1.35659L1.63591 34.803H3.01481L3.29935 35.7754H3.91011V35.6743L2.75216 31.8659L2.70526 31.8096V31.8086ZM2.33735 32.41L2.36236 32.5006C2.452 32.8321 2.54476 33.1739 2.68338 33.6284L2.87411 34.2548H1.77766L1.95901 33.6284C2.09033 33.1771 2.19352 32.8102 2.29878 32.41H2.33839H2.33735Z" fill="#2C211A"></path><path d="M6.85655 31.8086L6.80757 31.8586V33.7649C6.80757 34.1401 6.80757 34.3944 6.82633 34.7655H6.81174C6.68562 34.4747 6.53554 34.1943 6.39067 33.9233C6.33855 33.8264 6.28748 33.7305 6.23745 33.6357L5.30776 31.8565L5.26399 31.8086H4.65427L4.60529 31.8586V35.7254L4.65531 35.7744H5.13579L5.18582 35.7254V33.792C5.18582 33.4157 5.18582 33.1823 5.16706 32.8185H5.18165C5.33591 33.1729 5.48495 33.4554 5.65692 33.7795L6.67103 35.7275L6.71585 35.7744H7.3412L7.39123 35.7254V31.8586L7.34224 31.8086H6.86176H6.85655Z" fill="#2C211A"></path><path d="M10.5878 31.8086L10.5388 31.8586V33.7649C10.5388 34.1401 10.5388 34.3944 10.5576 34.7655H10.543C10.4169 34.4747 10.2668 34.1943 10.1219 33.9233C10.0698 33.8264 10.0188 33.7305 9.96873 33.6357L9.03904 31.8565L8.99527 31.8086H8.38555L8.33656 31.8586V35.7254L8.38659 35.7744H8.86707L8.9171 35.7254V33.792C8.9171 33.4157 8.9171 33.1823 8.89834 32.8185H8.91293C9.06718 33.1729 9.21623 33.4554 9.3882 33.7795L10.4023 35.7275L10.4471 35.7744H11.0725L11.1225 35.7254V31.8586L11.0735 31.8086H10.593H10.5878Z" fill="#2C211A"></path><path d="M12.1147 31.8086L12.0751 31.8628V35.7212L12.1158 35.7744H12.616L12.6661 35.7254V31.8586L12.616 31.8086H12.1147Z" fill="#2C211A"></path><path d="M14.8788 34.9312H14.834L13.9897 31.844L13.9793 31.8086H13.3738V31.9107L14.4879 35.74L14.4984 35.7744H15.1883L16.316 31.9243L16.3181 31.8086H15.7126L14.8788 34.9312Z" fill="#2C211A"></path><path d="M18.9915 32.3558L19.0217 32.3151L19.0937 31.8649L19.0509 31.8086H17.0196L16.98 31.8628V35.7212L17.0196 35.7744H19.0509L19.0937 35.7181L19.0301 35.2772L18.9915 35.2272H17.5699V33.9848H18.8425L18.8925 33.9348V33.4866L18.8425 33.4376H17.5699V32.3558H18.9915Z" fill="#2C211A"></path><path d="M21.4669 34.1215C21.6347 34.0954 21.9057 34.0131 22.061 33.8682C22.2632 33.6775 22.3611 33.393 22.3611 33C22.3611 32.1412 22.0411 31.8066 21.2219 31.8066H19.9389L19.8899 31.8567V35.7234L19.9389 35.7724H20.4298L20.4799 35.7234V34.1653H20.5716C20.7519 34.1653 20.8717 34.2466 21.0489 34.4894L21.9515 35.7526L21.9661 35.7724H22.5925V35.6015L21.7504 34.4435C21.6493 34.307 21.5659 34.2111 21.4679 34.1204L21.4669 34.1215ZM20.4799 32.3549H21.2063C21.6336 32.3549 21.7712 32.5018 21.7712 32.9573C21.7712 33.4128 21.5523 33.6191 21.1208 33.6191H20.4809V32.3549H20.4799Z" fill="#2C211A"></path><path d="M24.8261 33.6579L24.2132 33.3191C23.9203 33.1565 23.8297 33.0627 23.8297 32.7969C23.8297 32.5103 23.9318 32.3446 24.454 32.3446C24.7896 32.3446 25.1492 32.4124 25.2669 32.4353L25.2919 32.4395L25.3482 32.3821L25.2669 31.8808L25.2242 31.8381L25.2106 31.8349C25.0772 31.8047 24.799 31.7422 24.4425 31.7422C23.6066 31.7422 23.2335 32.0872 23.2335 32.8605C23.2335 33.414 23.4357 33.6255 23.8078 33.8225L24.5384 34.204C24.8261 34.353 24.8834 34.524 24.8834 34.7522C24.8834 35.0805 24.7698 35.2369 24.1246 35.2369C23.9162 35.2369 23.7108 35.2212 23.3335 35.141L23.3085 35.1358L23.2512 35.192L23.3325 35.7048L23.3742 35.7476L23.3877 35.7507C23.6139 35.807 23.9047 35.8382 24.2059 35.8382C25.1346 35.8382 25.4795 35.5391 25.4795 34.7366C25.4795 34.0477 25.243 33.8851 24.8261 33.6568V33.6579Z" fill="#2C211A"></path><path d="M27.9612 31.8086H27.2066L27.1711 31.8451L26.009 35.6597L26.0069 35.7754H26.6125L26.8918 34.803H28.2707L28.5552 35.7754H29.166V35.6743L28.0081 31.8659L27.9612 31.8096V31.8086ZM27.5932 32.41L27.6183 32.5006C27.7079 32.8321 27.8006 33.1739 27.9393 33.6284L28.13 34.2548H27.0335L27.2149 33.6284C27.3462 33.1771 27.4494 32.8102 27.5547 32.41H27.5943H27.5932Z" fill="#2C211A"></path><path d="M31.3975 34.1215C31.5653 34.0954 31.8362 34.0131 31.9915 33.8682C32.1937 33.6775 32.2917 33.393 32.2917 33C32.2917 32.1412 31.9717 31.8066 31.1525 31.8066H29.8695L29.8205 31.8567V35.7234L29.8695 35.7724H30.3604L30.4104 35.7234V34.1653H30.5022C30.6825 34.1653 30.8023 34.2466 30.9795 34.4894L31.8821 35.7526L31.8967 35.7724H32.5231V35.6015L31.6809 34.4435C31.5799 34.307 31.4965 34.2111 31.3985 34.1204L31.3975 34.1215ZM30.4094 32.3549H31.1358C31.5632 32.3549 31.7008 32.5018 31.7008 32.9573C31.7008 33.4128 31.4819 33.6191 31.0504 33.6191H30.4104V32.3549H30.4094Z" fill="#2C211A"></path><path d="M35.0037 31.8086L34.2293 33.5606H34.2063L33.4319 31.8086H32.8253V31.9107L33.9114 34.3131V35.7254L33.9614 35.7744H34.4638L34.5128 35.7254V34.3131L35.605 31.9305L35.6092 31.8086H35.0037Z" fill="#2C211A"></path><path d="M33.6341 28.7577C33.2454 28.7577 33.1651 28.6055 33.1651 28.3772V26.0791H34.0531L34.1167 26.0155V25.4402L34.0531 25.3766H33.1651V24.2687L33.0859 24.1895L32.4439 24.6032L32.398 24.6491V25.3891L31.8623 25.5277L31.805 25.5861V26.0144L31.8675 26.078H32.397V28.4575C32.397 29.1506 32.7534 29.4601 33.5528 29.4601C33.7019 29.4601 33.8457 29.4403 33.9937 29.3997L34.0083 29.3955L34.0594 29.3444L34.197 28.8285L34.1271 28.7587H33.6341V28.7577Z" fill="#2C211A"></path><path d="M36.69 25.2885C36.4607 25.2885 36.2846 25.3271 36.1199 25.4126C35.9657 25.497 35.7114 25.6794 35.5842 25.7753V23.7564L35.5133 23.6855L34.8869 23.8711L34.8161 23.9326V29.3095L34.8796 29.3731H35.5279L35.5905 29.3095V26.4256C35.8771 26.2339 36.2773 25.991 36.5566 25.991C36.961 25.991 36.9819 26.4975 36.9819 26.5986V29.3095L37.0455 29.3731H37.6864L37.75 29.3095V26.4965C37.75 25.695 37.3936 25.2885 36.689 25.2885H36.69Z" fill="#2C211A"></path><path d="M29.7945 3.58383C26.6646 1.40969 22.4289 0.162109 18.1723 0.162109C13.9157 0.162109 9.68003 1.40969 6.55014 3.58383C2.75634 6.21969 0.75 9.9989 0.75 14.5129C0.75 16.7079 1.29823 18.7778 2.38008 20.6653C3.3598 22.3746 4.74913 23.8901 6.50845 25.1699C9.73527 27.5171 13.923 28.8637 17.9951 28.8637L18.1692 28.8616L18.3464 28.8637C22.4185 28.8637 26.6062 27.5171 29.833 25.1699C31.5934 23.8901 32.9817 22.3746 33.9614 20.6653C35.0433 18.7778 35.5925 16.7079 35.5925 14.5129C35.5925 9.9989 33.5872 6.21969 29.7924 3.58383H29.7945ZM33.1995 20.2276C32.2823 21.8274 30.9764 23.2512 29.3171 24.4581C26.2383 26.6979 22.2423 27.9819 18.3526 27.984L18.1806 27.9819L17.9857 27.984C14.1054 27.984 10.1074 26.6989 7.02645 24.4581C5.36823 23.2522 4.06124 21.8285 3.14406 20.2276C2.13932 18.4745 1.62966 16.5515 1.62966 14.5119C1.62966 10.2991 3.50468 6.77 7.05147 4.30507C10.0365 2.23098 14.0898 1.04073 18.1713 1.04073C22.2527 1.04073 26.305 2.22994 29.2911 4.30507C32.8379 6.77 34.7129 10.2991 34.7129 14.5119C34.7129 16.5515 34.2032 18.4745 33.1985 20.2276H33.1995Z" fill="#2C211A"></path><path d="M24.1309 23.9076C21.4721 23.9076 19.3094 22.0357 19.3094 19.2508V10.0435C19.3094 7.25861 21.4721 5.38672 24.1309 5.38672C26.7897 5.38672 28.9523 7.25861 28.9523 10.0435V19.2508C28.9523 22.0357 26.7897 23.9076 24.1309 23.9076ZM24.1309 8.33108C22.4737 8.33108 22.1204 9.70894 22.1204 10.87V18.4243C22.1204 19.5853 22.4737 20.9632 24.1309 20.9632C25.8756 20.9632 26.1414 19.5853 26.1414 18.4243V10.87C26.1414 9.70894 25.8746 8.33108 24.1309 8.33108Z" fill="#2C211A"></path><path d="M10.1636 23.908C10.0844 23.908 10.0063 23.8986 9.92601 23.8871C8.63361 23.6964 8.69615 22.6145 8.82643 21.813C9.78739 15.9212 10.8547 14.1879 14.0596 9.51756C14.2336 9.26325 14.8746 8.32418 13.7417 8.32418H9.32463C8.54815 8.32418 7.39229 7.98649 7.39229 6.85252C7.39229 5.71855 8.54815 5.38086 9.32463 5.38086H15.2123C16.635 5.38086 17.2249 6.27199 17.4125 6.65554C18.2609 8.3888 16.7965 10.6098 16.6267 10.8569C13.5656 15.3177 12.417 17.3532 11.5478 22.6844C11.431 23.4014 10.8359 23.909 10.1647 23.909L10.1636 23.908Z" fill="#2C211A"></path></svg>