<svg width="375" height="144" viewBox="0 0 375 144" fill="none" xmlns="http://www.w3.org/2000/svg"><path d="M347.751 99.0356C347.751 99.0356 344.608 99.2644 341.344 99.5574C341.64 98.7637 342.066 98.0623 342.461 97.1311C342.461 97.1311 337.675 98.2529 336.909 99.9728C336.906 99.9828 336.9 99.9948 336.897 100.004C336.4 100.059 335.966 100.111 335.626 100.156C333.248 100.48 331.315 102.823 331.315 102.823C331.315 102.823 333.349 102.605 335.744 102.332C334.062 105.933 331.283 111.707 331.283 111.707L335.959 111.135C337.711 107.176 339.087 104.264 340.298 101.788C341.117 101.683 341.836 101.585 342.369 101.502C345.212 101.061 347.751 99.0356 347.751 99.0356Z" fill="#121212"></path><path d="M211.049 109.799C213.663 109.796 215.442 110.399 216.381 111.606C217.32 112.813 217.263 114.423 216.21 116.434C214.962 118.82 213.83 120.813 210.835 122.361C207.841 123.908 204.984 124.67 201.408 124.66C198.775 124.651 197.024 124.053 196.145 122.822C195.266 121.594 195.342 119.997 196.373 118.026C197.6 115.677 200.088 113.178 203.073 111.608C206.058 110.041 208.462 109.799 211.049 109.799ZM206.58 112.845C205.209 113.523 203.387 115.238 202.332 117.265C200.242 121.285 201.923 122.732 203.506 122.622C205.836 122.457 207.663 120.96 209.113 118.721C210.332 116.842 211.158 115.255 211.124 113.869C211.094 112.555 209.973 111.167 206.58 112.845Z" fill="#121212"></path><path d="M158.313 105.986C158.313 105.986 154.735 105.915 152.973 107.941C151.21 109.968 144.69 117.439 144.69 117.439L143.215 107.321C143.215 107.321 139.911 107.731 137.827 108.531L139.689 122.044L144.507 121.505L158.313 105.986Z" fill="#121212"></path><path d="M150.483 119.257C163.27 120.496 172.715 116.455 171.509 113.335C170.924 111.83 169.337 111.066 165.484 109.866C163.058 109.112 166.821 106.718 174.297 107.039L175.63 105.32C175.63 105.32 167.907 105.372 162.951 107.037C159.161 108.309 156.815 110.808 159.747 111.949C162.679 113.094 164.886 113.444 165.564 114.603C166.823 116.753 159.793 118.12 152.234 117.495L150.483 119.257Z" fill="#121212"></path><path d="M295.463 111.113C295.463 111.113 293.945 112.075 291.768 113.012C290.313 113.637 287.172 114.573 285.992 113.995C284.205 113.124 285.654 111.04 285.654 111.04C285.654 111.04 295.158 109.288 295.654 109.059C296.579 108.629 299.023 104.905 295.794 103.597C292.859 102.406 284.326 104.709 281.565 110.983C279.978 114.592 281.718 115.844 283.186 116.298C287.325 117.582 292.287 115.581 294.02 113.807L295.463 111.113ZM292.85 105.059C294.731 104.829 292.921 107.919 292.05 108.229C289.855 109.01 286.594 109.382 286.594 109.382C286.594 109.382 289.391 105.481 292.85 105.059Z" fill="#121212"></path><path d="M134.067 117.52C134.067 117.52 132.132 118.619 129.274 119.678C127.359 120.387 123.151 121.432 121.39 120.75C118.723 119.719 120.344 117.322 120.344 117.322C120.344 117.322 132.917 115.757 133.935 115.142C135.051 114.472 137.837 110.374 133.068 108.818C128.735 107.405 117.255 109.973 114.619 117.208C113.101 121.369 115.777 122.839 117.918 123.382C123.951 124.916 130.498 122.657 132.574 120.622L134.068 117.518L134.067 117.52ZM129.237 110.479C131.822 110.237 129.92 113.901 128.736 114.144C126.124 114.679 121.25 115.133 121.25 115.133C121.25 115.133 124.484 110.93 129.237 110.479Z" fill="#121212"></path><path d="M313.204 111.774C310.79 112.455 309.593 112.521 310.713 109.921C311.471 108.162 314.994 101.99 314.994 101.99C314.994 101.99 312.153 102.222 310.248 102.429C304.03 103.101 300.806 106.153 299.281 108.574C297.179 111.909 297.599 114.37 299.61 114.79C302.638 115.426 306.941 111.33 306.941 111.33C306.941 111.33 306.352 114.168 309.449 113.934C311.272 113.798 312.474 112.999 312.474 112.999L313.206 111.773L313.204 111.774ZM303.334 111.405C301.815 111.708 302.242 109.522 303.229 108.025C304.938 105.437 307.428 104.572 310.308 104.474C310.308 104.474 307.852 110.509 303.335 111.405" fill="#121212"></path><path d="M244.554 107.109C248.812 106.744 248.678 108.041 248.678 108.041C253.452 105.201 257.949 106.21 257.949 106.21C257.949 106.21 256.787 107.287 255.031 108.144C252.13 109.56 250.347 107.125 247.595 110.885C246.331 112.612 242.776 119.683 242.776 119.683L237.297 120.468C239.914 115.848 244.553 107.11 244.553 107.11" fill="#121212"></path><path d="M319.685 101.594C323.767 101.078 323.174 102.746 323.174 102.746C327.753 99.787 332.063 100.61 332.063 100.61C332.063 100.61 330.946 101.709 329.26 102.612C326.479 104.106 324.669 101.791 322.023 105.575C320.808 107.312 318.644 112.831 318.644 112.831L313.942 113.42C316.793 107.584 319.686 101.593 319.686 101.593" fill="#121212"></path><path d="M223.143 122.239C217.363 122.287 217.987 119.28 218.683 117.522C219.221 116.157 220.678 113.657 221.824 111.71C221.824 111.71 222.792 110.315 223.967 109.615C225.13 108.921 228.483 108.356 228.483 108.356C228.496 108.349 225.56 113.503 224.329 116.409C223.352 118.721 222.894 120.223 226.116 119.82C228.332 119.546 229.342 118.489 231.045 115.764C232.293 113.767 233.699 111.039 234.394 109.677C235.027 108.435 236.911 107.736 240.362 107.598C240.362 107.598 237.18 113.289 235.641 116.182C233.426 120.344 228.289 122.194 223.143 122.239Z" fill="#121212"></path><path d="M184.152 130.287C190.293 120.158 195.465 111.288 202.75 103.054C202.75 103.054 196.671 103.252 195.804 104.52L188.35 115.194C188.35 115.194 185.798 107.451 185.139 104.607C185.139 104.607 182.111 104.738 180.565 105.427C180.565 105.427 183.736 115.501 185.08 119.159C185.282 119.714 184.913 120.217 184.651 120.603C184.332 121.071 184.016 121.536 183.707 121.993C176.886 122.724 126.452 128.115 119.72 128.395C116.677 128.522 110.023 128.2 103.393 124.995C98.6493 122.702 96.6887 120.732 93.3674 118.885C93.3674 118.885 97.3489 118.329 104.008 115.811C114.955 111.669 122.243 103.216 107.286 100.912C95.7505 99.1348 60.2698 105.829 60.2698 105.829C60.2698 105.829 62.8928 107.933 66.4418 107.223C70.8167 106.348 76.1518 105.358 81.4739 104.58C78.3353 109.379 67.073 126.562 60.1484 136.497C60.1484 136.497 70.2959 136.09 71.8171 133.657C72.5185 132.534 76.205 125.99 80.0672 119.145C85.017 121.871 96.6847 129.373 99.0979 130.447C101.836 131.664 104.936 131.913 108.788 131.666C128.022 130.443 167.559 125.005 182.499 123.769C178.404 129.8 175.396 134.257 175.396 134.257C194.135 131.666 347.206 115.192 347.206 115.192L354.074 113.05C354.074 113.05 221.597 127.363 184.15 130.287M88.8821 103.66C94.8143 103.072 100.107 102.984 103.221 103.917C111.224 106.311 102.117 111.931 96.1107 114.422C89.8625 117.015 81.6827 118.699 80.1494 119C83.6042 112.879 87.1834 106.546 88.8821 103.66Z" fill="#121212"></path><path d="M279.768 99.2914C278.699 101.115 277.35 103.858 276.035 106.689L267.258 107.745C268.775 104.279 270.077 101.278 271.061 99.0897C271.061 99.0897 269.029 99.2192 267.357 99.5543C265.569 99.9135 264.572 100.334 264.572 100.334C264.572 100.334 265.632 100.778 265.934 101.444C262.813 107.287 257.063 119.558 257.063 119.558L262.296 119.028C263.675 116.001 264.989 112.909 266.193 110.17C268.455 109.701 272.48 109.123 275.082 108.768C272.893 113.595 271.023 118.087 271.023 118.087L275.648 117.604C279.855 107.048 283.74 99.765 284.891 97.8194C284.891 97.8194 280.79 97.5505 279.768 99.2924" fill="#121212"></path><path d="M299.32 14.2583V41.0724H311.278V14.2583H324.983V81.5651H311.266V53.3281H299.324V81.5651H285.543V14.2583H299.32ZM179.233 14.2583V81.5651H191.854V38.7736L199.271 81.5641H207.664L215.198 38.7736V81.5641H227.866V14.2583H209.091L203.547 46.6163L198.001 14.2583H179.234H179.233ZM86.2763 14.2583L101.057 59.476V81.5651H115.693V59.476L130.475 14.2583H116.77L108.375 44.3295L99.9789 14.2583H86.2763ZM171.585 81.5651H157.881L155.585 65.5457H145.286L142.99 81.5651H129.366L141.345 14.2583H159.585L171.585 81.5651ZM147.03 53.3241H153.84L150.435 29.469L147.03 53.3241ZM277.805 81.5651H264.1L261.805 65.5457H251.506L249.209 81.5651H235.585L247.565 14.2583H265.805L277.805 81.5651ZM253.25 53.3241H260.06L256.656 29.469L253.25 53.3241ZM375 81.5651H361.295L359.001 65.5457H348.7L346.407 81.5651H332.78L344.76 14.2583H362.998L375 81.5651ZM350.447 53.3241H357.257L353.85 29.469L350.447 53.3241ZM39.8204 8C17.8276 8 0 25.8286 0 47.8204C0 69.8122 17.8286 87.6408 39.8204 87.6408C61.8122 87.6408 79.6408 69.8122 79.6408 47.8204C79.6408 25.8286 61.8122 8 39.8204 8ZM72.8407 66.8842C72.4263 67.6026 71.6035 67.9649 70.7927 67.7853L67.3309 67.0177C61.2663 75.6921 51.2081 81.3684 39.8204 81.3684C28.4327 81.3684 18.3745 75.6921 12.3099 67.0177L8.84808 67.7853C8.03833 67.9649 7.21553 67.6026 6.80112 66.8842C6.38671 66.1658 6.48405 65.2717 7.04495 64.6606L9.43508 62.0518C7.40819 57.7311 6.27233 52.9087 6.27233 47.8204C6.27233 30.2587 19.7662 15.8517 36.9516 14.3947L38.0173 11.0142C38.2671 10.2236 38.9916 9.69175 39.8214 9.69175C40.6512 9.69175 41.3757 10.2236 41.6255 11.0142L42.6911 14.3947C59.8756 15.8507 73.3705 30.2587 73.3705 47.8204C73.3705 52.9087 72.2346 57.7311 70.2077 62.0518L72.5978 64.6606C73.1587 65.2717 73.2551 66.1658 72.8407 66.8842ZM71.1158 66.3273C71.2854 66.3644 71.46 66.2882 71.5473 66.1377C71.6346 65.9871 71.6135 65.7975 71.4961 65.6691L64.422 57.9488L62.8547 58.2258C62.0981 58.3592 61.2924 58.2388 60.575 57.8244C59.7732 57.3608 59.2324 56.6193 59.0036 55.7915L58.3584 53.4465C57.943 51.9374 56.9567 50.5848 55.4937 49.7399L52.1644 47.8184L66.9085 39.3064L65.0171 36.0303L48.3815 45.635L45.9924 44.2553V41.4969L62.6279 31.8922L60.7365 28.6161L45.9924 37.128V33.284C45.9924 31.5952 45.3141 30.064 44.2153 28.9502L42.5075 27.2193C41.9045 26.6083 41.5332 25.7684 41.5332 24.8423C41.5332 24.0134 41.8322 23.2559 42.3259 22.6679L43.3494 21.4497L40.2007 11.4628C40.1485 11.2972 39.995 11.1838 39.8214 11.1838C39.6478 11.1838 39.4943 11.2962 39.4421 11.4628L36.2934 21.4497L37.3169 22.6679C37.8106 23.2559 38.1096 24.0144 38.1096 24.8423C38.1096 25.7684 37.7373 26.6083 37.1353 27.2193L35.4275 28.9502C34.3287 30.065 33.6504 31.5952 33.6504 33.284V37.128L18.9063 28.6161L17.0149 31.8922L33.6504 41.4969V44.2553L31.2613 45.635L14.6257 36.0303L12.7343 39.3064L27.4784 47.8184L24.1491 49.7399C22.6861 50.5848 21.6998 51.9374 21.2844 53.4465L20.6392 55.7915C20.4114 56.6193 19.8706 57.3608 19.0678 57.8244C18.3504 58.2388 17.5447 58.3592 16.7881 58.2258L15.2208 57.9488L8.1467 65.6691C8.0293 65.7975 8.00823 65.9871 8.09552 66.1377C8.18282 66.2882 8.35641 66.3654 8.52699 66.3273L18.7498 64.0606L19.2936 62.5645C19.5565 61.8421 20.0632 61.2049 20.7807 60.7905C21.5824 60.3269 22.4955 60.2296 23.3263 60.4463L25.6793 61.0594C27.1945 61.4537 28.8591 61.2761 30.3211 60.4323L33.6504 58.5107V75.5356H37.4333V56.3273L39.8224 54.9476L42.2115 56.3273V75.5356H45.9944V58.5107L49.3237 60.4323C50.7867 61.2771 52.4513 61.4547 53.9655 61.0594L56.3185 60.4463C57.1493 60.2296 58.0624 60.3269 58.8641 60.7905C59.5816 61.2049 60.0893 61.8421 60.3512 62.5645L60.895 64.0606L71.1178 66.3273H71.1158ZM39.8204 50.5798L37.4313 49.2001V46.4417L39.8204 45.062L42.2095 46.4417V49.2001L39.8204 50.5798ZM37.4313 33.286C37.4313 31.9665 38.5009 30.8968 39.8204 30.8968C41.1399 30.8968 42.2095 31.9665 42.2095 33.286V39.3145L39.8204 40.6942L37.4313 39.3145V33.286ZM28.4277 57.1571C27.2848 57.8174 25.8238 57.425 25.1636 56.2822C24.5033 55.1393 24.8956 53.6783 26.0385 53.0181L31.2593 50.0038L33.6484 51.3835V54.1419L28.4277 57.1571ZM54.4762 56.2822C53.816 57.425 52.355 57.8164 51.2121 57.1571L45.9914 54.1429V51.3845L48.3805 50.0048L53.6012 53.0191C54.7441 53.6793 55.1355 55.1393 54.4762 56.2822Z" fill="#FF0000"></path></svg>